<mxfile host="65bd71144e">
    <diagram id="aJCda2B8OMZykyMT05pS" name="AnimationPlayableFlow">
        <mxGraphModel dx="1374" dy="790" grid="1" gridSize="10" guides="1" tooltips="1" connect="1" arrows="1" fold="1" page="1" pageScale="1" pageWidth="827" pageHeight="1169" math="0" shadow="0">
            <root>
                <mxCell id="0"/>
                <mxCell id="1" parent="0"/>
                <mxCell id="17" value="PlayableGraph" style="swimlane;fontFamily=Lucida Console;startSize=23;fontStyle=0" vertex="1" parent="1">
                    <mxGeometry x="330" y="60" width="920" height="240" as="geometry">
                        <mxRectangle x="140" y="120" width="100" height="23" as="alternateBounds"/>
                    </mxGeometry>
                </mxCell>
                <mxCell id="20" value="Playable 0" style="rounded=1;whiteSpace=wrap;html=1;fontFamily=Lucida Console;" vertex="1" parent="17">
                    <mxGeometry x="20" y="40" width="120" height="45" as="geometry"/>
                </mxCell>
                <mxCell id="23" value="Playable 1" style="rounded=1;whiteSpace=wrap;html=1;fontFamily=Lucida Console;" vertex="1" parent="17">
                    <mxGeometry x="20" y="102.5" width="120" height="45" as="geometry"/>
                </mxCell>
                <mxCell id="24" value="Source" style="edgeStyle=entityRelationEdgeStyle;shape=flexArrow;html=1;fontFamily=Lucida Console;entryX=0;entryY=0.5;entryDx=0;entryDy=0;" edge="1" parent="17" source="25" target="40">
                    <mxGeometry relative="1" as="geometry">
                        <mxPoint x="560" y="230" as="targetPoint"/>
                    </mxGeometry>
                </mxCell>
                <mxCell id="19" value="Connect" style="edgeStyle=entityRelationEdgeStyle;html=1;shape=flexArrow;fontFamily=Lucida Console;entryX=0;entryY=0.5;entryDx=0;entryDy=0;" edge="1" parent="17" source="20" target="34">
                    <mxGeometry relative="1" as="geometry">
                        <mxPoint x="280" y="20" as="targetPoint"/>
                    </mxGeometry>
                </mxCell>
                <mxCell id="22" value="Connect" style="edgeStyle=entityRelationEdgeStyle;shape=flexArrow;html=1;fontFamily=Lucida Console;entryX=0;entryY=0.5;entryDx=0;entryDy=0;" edge="1" parent="17" source="23" target="31">
                    <mxGeometry relative="1" as="geometry">
                        <mxPoint x="260" y="120" as="targetPoint"/>
                    </mxGeometry>
                </mxCell>
                <mxCell id="26" value="Connect" style="edgeStyle=entityRelationEdgeStyle;shape=flexArrow;html=1;fontFamily=Lucida Console;entryX=0;entryY=0.5;entryDx=0;entryDy=0;" edge="1" parent="17" source="27" target="35">
                    <mxGeometry relative="1" as="geometry">
                        <mxPoint x="220" y="230" as="targetPoint"/>
                    </mxGeometry>
                </mxCell>
                <mxCell id="27" value="Playable n" style="rounded=1;whiteSpace=wrap;html=1;fontFamily=Lucida Console;" vertex="1" parent="17">
                    <mxGeometry x="20" y="170" width="120" height="45" as="geometry"/>
                </mxCell>
                <mxCell id="38" value="" style="group" vertex="1" connectable="0" parent="17">
                    <mxGeometry x="240" y="45" width="260" height="160" as="geometry"/>
                </mxCell>
                <mxCell id="25" value="MixerPlayable" style="rounded=1;whiteSpace=wrap;html=1;fontFamily=Lucida Console;" vertex="1" parent="38">
                    <mxGeometry x="70" width="190" height="160" as="geometry"/>
                </mxCell>
                <mxCell id="31" value="InputPort 1" style="shape=step;perimeter=stepPerimeter;whiteSpace=wrap;html=1;fixedSize=1;fontFamily=Lucida Console;fontSize=10;" vertex="1" parent="38">
                    <mxGeometry y="65" width="110" height="30" as="geometry"/>
                </mxCell>
                <mxCell id="34" value="InputPort 0" style="shape=step;perimeter=stepPerimeter;whiteSpace=wrap;html=1;fixedSize=1;fontFamily=Lucida Console;fontSize=10;" vertex="1" parent="38">
                    <mxGeometry y="25" width="110" height="30" as="geometry"/>
                </mxCell>
                <mxCell id="35" value="InputPort n" style="shape=step;perimeter=stepPerimeter;whiteSpace=wrap;html=1;fixedSize=1;fontFamily=Lucida Console;fontSize=10;" vertex="1" parent="38">
                    <mxGeometry y="105" width="110" height="30" as="geometry"/>
                </mxCell>
                <mxCell id="41" value="" style="group" vertex="1" connectable="0" parent="17">
                    <mxGeometry x="600" y="100" width="300" height="50" as="geometry"/>
                </mxCell>
                <mxCell id="21" value="PlayableOutput" style="rounded=1;whiteSpace=wrap;html=1;fontFamily=Lucida Console;" vertex="1" parent="41">
                    <mxGeometry x="70" width="230" height="50" as="geometry"/>
                </mxCell>
                <mxCell id="40" value="SourcePlayable" style="shape=step;perimeter=stepPerimeter;whiteSpace=wrap;html=1;fixedSize=1;fontFamily=Lucida Console;fontSize=10;" vertex="1" parent="41">
                    <mxGeometry y="10" width="130" height="30" as="geometry"/>
                </mxCell>
            </root>
        </mxGraphModel>
    </diagram>
</mxfile>